<?xml version="1.0" standalone="no"?><!DOCTYPE svg PUBLIC "-//W3C//DTD SVG 1.1//EN" "http://www.w3.org/Graphics/SVG/1.1/DTD/svg11.dtd"><svg t="1744892688489" class="icon" viewBox="0 0 1024 1024" version="1.1" xmlns="http://www.w3.org/2000/svg" p-id="5667" xmlns:xlink="http://www.w3.org/1999/xlink" width="200" height="200"><path d="M476.612 39.856a41.468 41.468 0 0 1 70.776 0l139.708 228.812a3.612 3.612 0 0 0 2.22 1.612l260.784 62.164a41.46 41.46 0 0 1 21.872 67.308l-174.44 203.58a3.54 3.54 0 0 0-0.848 2.608l21.464 267.232a41.468 41.468 0 0 1-57.256 41.6l-247.52-102.992a3.588 3.588 0 0 0-2.744 0l-247.52 102.992a41.464 41.464 0 0 1-57.256-41.6l21.464-267.232a3.552 3.552 0 0 0-0.848-2.608l-174.44-203.58a41.464 41.464 0 0 1 21.872-67.308L334.684 270.28a3.612 3.612 0 0 0 2.22-1.612l139.708-228.812z" fill="#FFD677" p-id="5668"></path><path d="M223.18 910.304l-0.372-0.268a41.468 41.468 0 0 1-16.956-36.864l21.464-267.232a3.552 3.552 0 0 0-0.848-2.608l-174.44-203.58a41.464 41.464 0 0 1-7.948-39.788l0.004-0.008 468.384 152.196-289.288 398.152z" fill="#FFBA53" p-id="5669"></path><path d="M44.468 358.824a41.46 41.46 0 0 1 29.432-26.38L334.684 270.28a3.612 3.612 0 0 0 2.22-1.612l139.708-228.812A41.464 41.464 0 0 1 511.712 20v491.6L44.468 358.824z" fill="#FFF9EB" p-id="5670"></path><path d="M44.888 357.708a41.452 41.452 0 0 1 29.012-25.264L334.684 270.28a3.612 3.612 0 0 0 2.22-1.612l139.708-228.812a41.468 41.468 0 0 1 38.668-19.728l-56.536 344.3a66.82 66.82 0 0 1-77.992 54.892L44.888 357.708z" fill="#FFE899" p-id="5671"></path><path d="M800.64 910.428l-289.108-398.276 468.212-152.716 0.176 0.528a41.464 41.464 0 0 1-7.948 39.788l-174.44 203.58a3.54 3.54 0 0 0-0.848 2.608l21.464 267.232a41.468 41.468 0 0 1-17.508 37.256z" fill="#FFB955" p-id="5672"></path><path d="M979.316 358.236l-467.784 153.916V20.004L512 20c14.448 0 27.856 7.524 35.388 19.856l139.708 228.812a3.612 3.612 0 0 0 2.22 1.612l260.784 62.164a41.46 41.46 0 0 1 29.216 25.792z" fill="#FFD677" p-id="5673"></path><path d="M223.2 910.316l289.268-398.164 288.724 397.884a41.464 41.464 0 0 1-40.3 4.736l-247.52-102.992a3.588 3.588 0 0 0-2.744 0l-247.52 102.992a41.456 41.456 0 0 1-39.908-4.456z" fill="#FF9956" p-id="5674"></path></svg>